ply
format ascii 1.0
comment object: cube
element vertex 8
property float x
property float y
property float z
property float red
property float green
property float blue
element face 12
property list uchar int vertex_index
end_header
-0.100000 -0.100000 -0.100000 1.0 0.0 0.0
0.100000 0.100000 0.100000 0.0 1.0 0.0
-0.100000 -0.100000 -0.100000 0.0 0.0 1.0
0.100000 0.100000 0.100000 0.5 0.5 0.5
-0.100000 -0.100000 -0.100000 0.0 0.0 0.0
0.100000 0.100000 0.100000 1.0 1.0 1.0
-0.100000 -0.100000 -0.100000 1.0 1.0 0.0
0.100000 0.100000 0.100000 0.5 0.5 0.0
3 0 1 2
3 1 3 2
3 3 1 5
3 7 3 5
3 5 6 7
3 5 4 6
3 4 0 2
3 4 2 6
3 6 2 3
3 6 3 7
3 4 5 1
3 4 1 0
