ply
format ascii 1.0
comment A block with a separate quad for each face, so uv coordinates can wrap around and normals can be rigid.
element vertex 24
property float x
property float y
property float z
property float normal_x
property float normal_y
property float normal_z
property float u
property float v
element face 12
property list uchar int vertex_index
end_header
    0 0 0    -1 0 0    0 0
0 0 1    -1 0 0    0 1
0 1 1    -1 0 0    1 1
0 1 0    -1 0 0    1 0
 1 1 0    1 0 0     0 0
1 1 1    1 0 0     0 1
1 0 1    1 0 0     1 1
1 0 0    1 0 0     1 0
    0 0 0    0 -1 0    0 0
0 0 1    0 -1 0    0 1
1 0 1    0 -1 0    1 1
1 0 0    0 -1 0    1 0
 1 1 0    0 1 0    0 0
1 1 1    0 1 0    0 1
0 1 1    0 1 0    1 1
0 1 0    0 1 0    1 0
    0 0 0    0 0 -1    0 0
0 1 0    0 0 -1    0 1
1 1 0    0 0 -1    1 1
1 0 0    0 0 -1    1 0
 1 0 1    0 0 1     0 0
1 1 1    0 0 1     0 1
0 1 1    0 0 1     1 1
0 0 1    0 0 1     1 0
3 2  1  0 
3 3  2  0 
3 6  5  4 
3 7  6  4 
3 10 9  8 
3 11 10 8 
3 14 13 12
3 15 14 12
3 18 17 16
3 19 18 16
3 22 21 20
3 23 22 20
