ply
format ascii 1.0
comment A block with a separate quad for each face, so uv coordinates can wrap around and normals can be rigid.
element vertex 24
property float x
property float y
property float z
property float normal_x
property float normal_y
property float normal_z
property float u
property float v
element face 12
property list uchar int vertex_index
end_header
    0 0 0    -1 0 0    0 0
0 0 1    -1 0 0    0 1
0 1 1    -1 0 0    1 1
0 1 0    -1 0 0    1 0
 1 1 0    1 0 0     0 0
1 1 1    1 0 0     0 1
1 0 1    1 0 0     1 1
1 0 0    1 0 0     1 0
    0 0 0    0 -1 0    0 0
0 0 1    0 -1 0    0 1
1 0 1    0 -1 0    1 1
1 0 0    0 -1 0    1 0
 1 1 0    0 1 0    0 0
1 1 1    0 1 0    0 1
0 1 1    0 1 0    1 1
0 1 0    0 1 0    1 0
    0 0 0    0 0 -1    0 0
0 1 0    0 0 -1    0 1
1 1 0    0 0 -1    1 1
1 0 0    0 0 -1    1 0
 1 0 1    0 0 1     0 0
1 1 1    0 0 1     0 1
0 1 1    0 0 1     1 1
0 0 1    0 0 1     1 0
3 0 1 2
3 0 2 3
3 4 5 6
3 4 6 7
3 8 9 10
3 8 10 11
3 12 13 14
3 12 14 15
3 16 17 18
3 16 18 19
3 20 21 22
3 20 22 23
