ply
format ascii 1.0
comment object: cube
element vertex 8
property float x
property float y
property float z
property float red
property float green
property float blue
property float u
property float v
property float normal_x
property float normal_y
property float normal_z
element face 12
property list uchar int vertex_index
end_header
1 1 1 1.0 0.0 0.0    0 0    1 1 1
1 1 -1 0.0 1.0 0.0   0 1    1 1 -1
1 -1 1 0.0 0.0 1.0   1 1    1 -1 1
1 -1 -1 0.5 0.5 0.5  1 0    1 -1 -1
-1 1 1 0.0 0.0 0.0   0 1    -1 1 1
-1 1 -1 1.0 1.0 1.0  1 1    -1 1 -1
-1 -1 1 1.0 1.0 0.0  1 0    -1 -1 1
-1 -1 -1 0.5 0.5 0.0 0 0    -1 -1 -1
3 0 1 2
3 1 3 2
3 3 1 5
3 7 3 5
3 5 6 7
3 5 4 6
3 4 0 2
3 4 2 6
3 6 2 3
3 6 3 7
3 4 5 1
3 4 1 0
